<svg width="900" height="1100" viewBox="0 0 900 1100" fill="none" xmlns="http://www.w3.org/2000/svg">
  <rect width="900" height="1100" rx="68" fill="url(#bg)"/>
  <circle cx="654" cy="218" r="170" fill="url(#glow1)"/>
  <circle cx="222" cy="860" r="126" fill="url(#glow2)"/>
  <g filter="url(#shadow)">
    <rect x="240" y="118" width="420" height="840" rx="120" fill="url(#glass)"/>
    <rect x="266" y="148" width="368" height="782" rx="104" fill="url(#teaFill)"/>
    <rect x="286" y="176" width="328" height="90" rx="45" fill="#FFF9DE" fill-opacity="0.66"/>
    <path d="M266 378C323 360 383 372 442 387C512 406 564 403 634 372V772C589 812 521 832 449 832C375 832 320 813 266 772V378Z" fill="url(#amber)"/>
    <rect x="302" y="550" width="292" height="178" rx="36" fill="#F3D857" fill-opacity="0.18"/>
    <circle cx="352" cy="476" r="66" fill="#F5E26B" fill-opacity="0.82"/>
    <circle cx="552" cy="608" r="56" fill="#F6E98F" fill-opacity="0.46"/>
    <circle cx="470" cy="718" r="40" fill="#FFF5BF" fill-opacity="0.28"/>
    <rect x="334" y="76" width="232" height="62" rx="31" fill="#FFFFFF" fill-opacity="0.86"/>
  </g>
  <g opacity="0.88">
    <path d="M274 196C286 196 294 206 294 218V820C294 835 286 846 274 846C262 846 254 835 254 820V218C254 206 262 196 274 196Z" fill="#FFFFFF" fill-opacity="0.30"/>
    <path d="M618 196C630 196 638 206 638 218V820C638 835 630 846 618 846C606 846 598 835 598 820V218C598 206 606 196 618 196Z" fill="#FFFFFF" fill-opacity="0.20"/>
  </g>
  <g>
    <circle cx="630" cy="308" r="86" fill="#F3DA54" fill-opacity="0.96"/>
    <circle cx="630" cy="308" r="64" fill="#FFF2B4"/>
    <circle cx="630" cy="308" r="56" stroke="#F3DA54" stroke-width="6"/>
    <path d="M707 350C728 341 748 350 759 370" stroke="#7C9D49" stroke-width="12" stroke-linecap="round"/>
    <ellipse cx="776" cy="390" rx="34" ry="18" transform="rotate(30 776 390)" fill="#6C9344"/>
  </g>
  <defs>
    <linearGradient id="bg" x1="130" y1="78" x2="760" y2="1030" gradientUnits="userSpaceOnUse">
      <stop stop-color="#FFFCEF"/>
      <stop offset="1" stop-color="#F4E8C6"/>
    </linearGradient>
    <radialGradient id="glow1" cx="0" cy="0" r="1" gradientUnits="userSpaceOnUse" gradientTransform="translate(654 218) rotate(90) scale(170)">
      <stop stop-color="#FFE360"/>
      <stop offset="1" stop-color="#FFE360" stop-opacity="0"/>
    </radialGradient>
    <radialGradient id="glow2" cx="0" cy="0" r="1" gradientUnits="userSpaceOnUse" gradientTransform="translate(222 860) rotate(90) scale(126)">
      <stop stop-color="#FFF4B7"/>
      <stop offset="1" stop-color="#FFF4B7" stop-opacity="0"/>
    </radialGradient>
    <linearGradient id="glass" x1="258" y1="138" x2="640" y2="936" gradientUnits="userSpaceOnUse">
      <stop stop-color="#FFFFFF" stop-opacity="0.86"/>
      <stop offset="1" stop-color="#FFF9E9" stop-opacity="0.44"/>
    </linearGradient>
    <linearGradient id="teaFill" x1="450" y1="148" x2="450" y2="930" gradientUnits="userSpaceOnUse">
      <stop stop-color="#FFF5C6"/>
      <stop offset="0.42" stop-color="#F4DE72"/>
      <stop offset="1" stop-color="#A55623"/>
    </linearGradient>
    <linearGradient id="amber" x1="450" y1="372" x2="450" y2="832" gradientUnits="userSpaceOnUse">
      <stop stop-color="#8A481C" stop-opacity="0.10"/>
      <stop offset="0.2" stop-color="#A95A24" stop-opacity="0.16"/>
      <stop offset="1" stop-color="#6A3314" stop-opacity="0.24"/>
    </linearGradient>
    <filter id="shadow" x="172" y="44" width="556" height="984" filterUnits="userSpaceOnUse" color-interpolation-filters="sRGB">
      <feFlood flood-opacity="0" result="BackgroundImageFix"/>
      <feColorMatrix in="SourceAlpha" type="matrix" values="0 0 0 0 0 0 0 0 0 0 0 0 0 0 0 0 0 0 127 0" result="hardAlpha"/>
      <feOffset dy="28"/>
      <feGaussianBlur stdDeviation="34"/>
      <feColorMatrix type="matrix" values="0 0 0 0 0.31 0 0 0 0 0.22 0 0 0 0 0.02 0 0 0 0.18 0"/>
      <feBlend mode="normal" in2="BackgroundImageFix" result="effect1_dropShadow_0_1"/>
      <feBlend mode="normal" in="SourceGraphic" in2="effect1_dropShadow_0_1" result="shape"/>
    </filter>
  </defs>
</svg>
